<svg width="128" height="154" viewBox="0 0 128 154" fill="none" xmlns="http://www.w3.org/2000/svg">
<path d="M32.4726 46.8886L34.1501 56.2387C35.7777 65.3108 41.2381 73.2405 49.1327 77.9971L54.2402 81.0744L48.5711 82.9231C39.8083 85.7806 32.7032 92.2777 29.0752 100.751L25.3361 109.483L23.6586 100.133C22.0309 91.0609 16.5706 83.1312 8.67591 78.3745L3.56846 75.2972L9.23753 73.4486C18.0003 70.5911 25.1055 64.094 28.7334 55.6211L32.4726 46.8886Z" fill="#4EB8E7"/>
<path d="M71.9069 0L73.3936 4.96282C74.836 9.77805 78.2846 13.7375 82.8562 15.8272L85.8139 17.1792L82.8562 18.5311C78.2846 20.6208 74.836 24.5803 73.3936 29.3955L71.9069 34.3583L70.4203 29.3955C68.9779 24.5803 65.5293 20.6208 60.9576 18.5311L58 17.1792L60.9576 15.8272C65.5293 13.7375 68.9779 9.77805 70.4203 4.96282L71.9069 0Z" fill="#4EB8E7"/>
<path d="M113.881 128.911L115.433 132.117C116.94 135.227 119.714 137.537 123.046 138.455L125.201 139.049L123.342 140.29C120.468 142.209 118.56 145.275 118.109 148.701L117.643 152.232L116.09 149.026C114.584 145.916 111.81 143.606 108.478 142.688L106.322 142.095L108.182 140.853C111.056 138.934 112.963 135.869 113.415 132.443L113.881 128.911Z" fill="#4EB8E7"/>
</svg>
