<svg width="197" height="31" viewBox="0 0 197 31" fill="none" xmlns="http://www.w3.org/2000/svg">
<path d="M141.582 25.8251C140.646 25.8251 139.802 25.6618 139.051 25.3351C138.309 24.9996 137.726 24.5051 137.301 23.8517C136.877 23.1983 136.665 22.3859 136.665 21.4147C136.665 20.5847 136.815 19.896 137.116 19.3485C137.416 18.7922 137.827 18.3419 138.348 17.9976C138.87 17.6532 139.462 17.3927 140.124 17.2161C140.787 17.0395 141.489 16.9159 142.232 16.8453C143.089 16.7658 143.778 16.6863 144.299 16.6069C144.82 16.5274 145.2 16.4082 145.439 16.2493C145.686 16.0815 145.81 15.8431 145.81 15.5341V15.4678C145.81 14.8586 145.616 14.3862 145.227 14.0507C144.847 13.7151 144.308 13.5474 143.61 13.5474C142.877 13.5474 142.289 13.7107 141.847 14.0374C141.414 14.3553 141.127 14.7615 140.986 15.2559L137.182 14.9513C137.377 14.0507 137.756 13.2736 138.322 12.6202C138.887 11.958 139.616 11.4503 140.509 11.0971C141.41 10.7351 142.452 10.5541 143.636 10.5541C144.458 10.5541 145.244 10.6512 145.995 10.8455C146.746 11.0397 147.414 11.3399 147.997 11.7461C148.589 12.1434 149.057 12.66 149.401 13.2957C149.746 13.9315 149.918 14.6864 149.918 15.5605V25.547H146.009V23.4808H145.903C145.664 23.9488 145.346 24.3594 144.948 24.7126C144.551 25.0569 144.074 25.3307 143.517 25.5338C142.96 25.728 142.315 25.8251 141.582 25.8251ZM142.762 22.9908C143.362 22.9908 143.893 22.8716 144.352 22.6332C144.82 22.3859 145.183 22.0592 145.439 21.6531C145.704 21.2381 145.836 20.7745 145.836 20.2624V18.6863C145.713 18.7657 145.536 18.8408 145.306 18.9114C145.085 18.9821 144.838 19.0439 144.564 19.0969C144.29 19.1498 144.016 19.1984 143.742 19.2426C143.469 19.2779 143.221 19.3132 143 19.3485C142.514 19.4191 142.09 19.5339 141.728 19.6929C141.366 19.843 141.083 20.0505 140.88 20.3154C140.685 20.5714 140.588 20.8937 140.588 21.2822C140.588 21.8385 140.791 22.2623 141.198 22.5537C141.604 22.8451 142.126 22.9908 142.762 22.9908Z" fill="#2B2B2B"/>
<path d="M122.365 25.547V10.7395H126.46V16.4877H127.627L131.642 10.7395H136.466L131.232 18.1035L136.519 25.547H131.642L127.985 20.3021H126.46V25.547H122.365Z" fill="#2B2B2B"/>
<path d="M105.839 25.547L105.825 22.3021H106.316C106.784 22.2932 107.164 22.1343 107.456 21.8253C107.756 21.5162 107.981 20.9997 108.131 20.2756C108.291 19.5428 108.392 18.5538 108.436 17.3088L108.688 10.7395H119.94V25.547H116.03V13.9712H112.372L112.134 18.5009C112.072 19.737 111.922 20.801 111.683 21.6928C111.445 22.5846 111.113 23.3175 110.689 23.8914C110.274 24.4565 109.762 24.8759 109.152 25.1497C108.551 25.4146 107.858 25.547 107.071 25.547H105.839Z" fill="#2B2B2B"/>
<path d="M98.1784 25.8384C96.6588 25.8384 95.3467 25.5293 94.2423 24.9113C93.1379 24.2932 92.2897 23.4146 91.6977 22.2756C91.1146 21.1277 90.823 19.7723 90.823 18.2095C90.823 16.6908 91.1146 15.3575 91.6977 14.2096C92.2897 13.0617 93.1202 12.1655 94.1893 11.5209C95.2672 10.8764 96.5306 10.5541 97.9796 10.5541C98.9604 10.5541 99.8748 10.713 100.723 11.0309C101.571 11.3399 102.313 11.8079 102.95 12.4348C103.586 13.0529 104.08 13.8343 104.434 14.7791C104.787 15.7151 104.964 16.8144 104.964 18.077V19.1896H92.4531V16.6599H102.976L101.068 17.3221C101.068 16.5716 100.953 15.9182 100.723 15.3619C100.493 14.8056 100.149 14.3774 99.6893 14.0771C99.2387 13.7681 98.6776 13.6136 98.0061 13.6136C97.3347 13.6136 96.7648 13.7681 96.2965 14.0771C95.8371 14.3862 95.4837 14.8056 95.2363 15.3354C94.9889 15.8652 94.8652 16.4744 94.8652 17.1631V18.9512C94.8652 19.7547 95.0065 20.4434 95.2893 21.0173C95.572 21.5824 95.9652 22.0195 96.4688 22.3286C96.9812 22.6288 97.5688 22.7789 98.2315 22.7789C98.6909 22.7789 99.1062 22.7126 99.4772 22.5802C99.8483 22.4478 100.166 22.2535 100.431 21.9974C100.705 21.7414 100.909 21.4323 101.041 21.0703L104.831 21.322C104.646 22.2314 104.257 23.0261 103.665 23.706C103.082 24.3771 102.327 24.9024 101.399 25.2821C100.471 25.653 99.3977 25.8384 98.1784 25.8384Z" fill="#2B2B2B"/>
<path d="M76.9207 13.9712V10.7395H90.3195V13.9712H85.5616V25.547H81.652V13.9712H76.9207Z" fill="#2B2B2B"/>
<path d="M69.2603 25.8384C67.7671 25.8384 66.4727 25.5205 65.3772 24.8848C64.2904 24.2402 63.451 23.3484 62.8591 22.2094C62.2759 21.0615 61.9844 19.7282 61.9844 18.2095C61.9844 16.6731 62.2759 15.3354 62.8591 14.1964C63.451 13.0485 64.2904 12.1567 65.3772 11.5209C66.4727 10.8764 67.7671 10.5541 69.2603 10.5541C70.7623 10.5541 72.0567 10.8764 73.1434 11.5209C74.239 12.1567 75.0784 13.0485 75.6615 14.1964C76.2535 15.3354 76.5495 16.6731 76.5495 18.2095C76.5495 19.7282 76.2535 21.0615 75.6615 22.2094C75.0784 23.3484 74.239 24.2402 73.1434 24.8848C72.0567 25.5205 70.7623 25.8384 69.2603 25.8384ZM69.2868 22.6332C69.9671 22.6332 70.537 22.4433 70.9964 22.0637C71.4559 21.6752 71.8005 21.1454 72.0302 20.4743C72.2687 19.8032 72.388 19.0395 72.388 18.183C72.388 17.3177 72.2687 16.5539 72.0302 15.8917C71.8005 15.2294 71.4559 14.7085 70.9964 14.3288C70.537 13.9491 69.9671 13.7593 69.2868 13.7593C68.5976 13.7593 68.0189 13.9491 67.5507 14.3288C67.0912 14.7085 66.7422 15.2294 66.5037 15.8917C66.2739 16.5539 66.1591 17.3177 66.1591 18.183C66.1591 19.0395 66.2739 19.8032 66.5037 20.4743C66.7422 21.1454 67.0912 21.6752 67.5507 22.0637C68.0189 22.4433 68.5976 22.6332 69.2868 22.6332Z" fill="#2B2B2B"/>
<path d="M48.8506 5.8125L52.8265 12.5408H52.9856L56.9747 5.8125H61.6928L55.6627 15.693L61.8386 25.547H57.0145L52.9856 18.8187H52.8265L48.7711 25.547H44L50.1759 15.693L44.106 5.8125H48.8506Z" fill="#2B2B2B"/>
<rect x="156.928" y="3.95602" width="36" height="25" rx="10" fill="#4EB8E7"/>
<path d="M179.744 15.4733V13.684H187.158V15.4733H184.525V21.8826H182.362V15.4733H179.744Z" fill="white"/>
<path d="M175.505 22.044C174.679 22.044 173.963 21.868 173.356 21.516C172.755 21.1591 172.291 20.6653 171.963 20.0346C171.64 19.3991 171.479 18.6609 171.479 17.82C171.479 16.9693 171.64 16.2287 171.963 15.598C172.291 14.9624 172.755 14.4687 173.356 14.1167C173.963 13.7598 174.679 13.5813 175.505 13.5813C176.336 13.5813 177.052 13.7598 177.654 14.1167C178.26 14.4687 178.724 14.9624 179.047 15.598C179.375 16.2287 179.538 16.9693 179.538 17.82C179.538 18.6609 179.375 19.3991 179.047 20.0346C178.724 20.6653 178.26 21.1591 177.654 21.516C177.052 21.868 176.336 22.044 175.505 22.044ZM175.52 20.2693C175.896 20.2693 176.211 20.1642 176.466 19.954C176.72 19.7389 176.911 19.4455 177.038 19.074C177.17 18.7024 177.236 18.2795 177.236 17.8053C177.236 17.3262 177.17 16.9033 177.038 16.5367C176.911 16.17 176.72 15.8816 176.466 15.6713C176.211 15.4611 175.896 15.356 175.52 15.356C175.138 15.356 174.818 15.4611 174.559 15.6713C174.305 15.8816 174.112 16.17 173.98 16.5367C173.853 16.9033 173.789 17.3262 173.789 17.8053C173.789 18.2795 173.853 18.7024 173.98 19.074C174.112 19.4455 174.305 19.7389 174.559 19.954C174.818 20.1642 175.138 20.2693 175.52 20.2693Z" fill="white"/>
<path d="M162.554 21.8826V10.956H169.807V12.8627H164.857V14.9893H166.639C167.504 14.9893 168.25 15.1311 168.876 15.4147C169.506 15.6933 169.993 16.0869 170.335 16.5953C170.677 17.1038 170.848 17.7027 170.848 18.392C170.848 19.0813 170.677 19.6875 170.335 20.2106C169.993 20.7337 169.506 21.1444 168.876 21.4426C168.25 21.736 167.504 21.8826 166.639 21.8826H162.554ZM164.857 20.02H166.639C167.055 20.02 167.404 19.9466 167.688 19.8C167.971 19.6484 168.186 19.448 168.333 19.1986C168.48 18.9444 168.553 18.6682 168.553 18.37C168.553 17.9349 168.389 17.5682 168.062 17.27C167.734 16.9718 167.26 16.8227 166.639 16.8227H164.857V20.02Z" fill="white"/>
<g clip-path="url(#clip0_64_429)">
<path d="M17.8533 16.9519V29.6466H28.7413C29.2854 29.6484 29.7284 29.2089 29.7247 28.667V16.952L17.8533 16.9519Z" fill="#4EB8E7"/>
<path d="M2.2815 16.9538V28.6688C2.27966 29.2052 2.71165 29.6429 3.25025 29.6483H14.1491V16.9537L2.2815 16.9538Z" fill="#4EB8E7"/>
<path d="M6.19851 0.351556C4.04411 0.351556 2.27757 2.1112 2.27757 4.25718C2.27757 4.96579 2.47059 5.63231 2.80515 6.20728H1.29597H1.29781C1.03678 6.20544 0.784961 6.30798 0.601102 6.49292C0.415441 6.67602 0.3125 6.92688 0.3125 7.1869V14.0185C0.3125 14.2785 0.415441 14.5293 0.601102 14.7124C0.784923 14.8974 1.03676 14.9999 1.29781 14.9999H14.1491V6.20711H6.25593H6.25776C6.23754 6.20528 6.21732 6.20345 6.1971 6.20345C5.10336 6.20345 4.22835 5.34835 4.22835 4.25889C4.22835 3.16942 5.10152 2.31249 6.1971 2.31249C10.3717 2.31249 12.9195 4.63609 14.1712 6.20715H17.8238C19.0738 4.63609 21.6197 2.31249 25.7927 2.31249C26.8865 2.31249 27.7615 3.16759 27.7615 4.25889C27.7615 5.34835 26.8883 6.20345 25.7927 6.20345H25.7946C25.7872 6.20345 25.7799 6.20528 25.7725 6.20711H17.8534V14.9999H30.708H30.7227C31.2613 14.9926 31.6933 14.555 31.6915 14.0185V7.18689C31.6933 6.92688 31.5904 6.67788 31.4047 6.49291C31.2209 6.3098 30.9691 6.20543 30.708 6.20727H29.1915C29.526 5.6323 29.719 4.96583 29.719 4.25717C29.719 2.11119 27.947 0.351547 25.7944 0.351547C20.5629 0.351547 17.4104 3.52475 15.9987 5.40139C14.5869 3.52456 11.4307 0.351547 6.19912 0.351547L6.19851 0.351556Z" fill="#4EB8E7"/>
</g>
<defs>
<clipPath id="clip0_64_429">
<rect width="32" height="30" fill="white"/>
</clipPath>
</defs>
</svg>
