<svg width="17" height="16" viewBox="0 0 17 16" fill="none" xmlns="http://www.w3.org/2000/svg">
<path d="M6.01648 13.9255C5.53982 13.9255 5.62081 13.7446 5.45641 13.2886L4.05469 8.65307L14.8446 2.22107" fill="#C8DAEA"/>
<path d="M6.01562 13.9255C6.38346 13.9255 6.54598 13.7565 6.7513 13.5559L8.71309 11.6391L6.266 10.1563" fill="#A9C9DD"/>
<path d="M6.26809 10.1567L12.1976 14.5587C12.8742 14.9338 13.3626 14.7396 13.5311 13.9274L15.9448 2.49861C16.1919 1.50309 15.5671 1.05157 14.9198 1.34687L0.747056 6.83821C-0.220367 7.22812 -0.214727 7.77045 0.570715 8.0121L4.20776 9.15277L12.6279 3.81493C13.0254 3.57273 13.3902 3.70294 13.0908 3.96998" fill="url(#paint0_linear_592_2839)"/>
<defs>
<linearGradient id="paint0_linear_592_2839" x1="6.87355" y1="8.05743" x2="8.45954" y2="13.163" gradientUnits="userSpaceOnUse">
<stop stop-color="#EFF7FC"/>
<stop offset="1" stop-color="white"/>
</linearGradient>
</defs>
</svg>
